<svg xmlns="http://www.w3.org/2000/svg" width="200" height="200" viewBox="0 0 200 200">
  <defs>
    <linearGradient id="bg" x1="50%" x2="50%" y1="0%" y2="100%">
      <stop offset="0%" stop-color="#a2c4f9" />
      <stop offset="100%" stop-color="#5f8ddc" />
    </linearGradient>
    <linearGradient id="glow" x1="50%" x2="50%" y1="0%" y2="100%">
      <stop offset="0%" stop-color="#f5fbff" stop-opacity="0.95" />
      <stop offset="100%" stop-color="#b9d6ff" stop-opacity="0.2" />
    </linearGradient>
  </defs>
  <rect width="200" height="200" rx="36" fill="url(#bg)" />
  <g transform="translate(100 96) rotate(45)">
    <path d="M0 -54 C26 -54 46 -34 46 -8 C46 8 39 24 26 34 C13 44 0 42 -13 34 C-26 24 -33 8 -33 -8 C-33 -34 -13 -54 0 -54 Z" fill="url(#glow)" />
    <path d="M0 -44 C19 -44 34 -29 34 -10 C34 0 30 12 22 18 C14 24 4 22 -4 18 C-12 12 -16 0 -16 -10 C-16 -29 -1 -44 0 -44 Z" fill="#eff6ff" opacity="0.75" />
  </g>
</svg>